<svg width="121" height="19" viewBox="0 0 121 19" fill="none" xmlns="http://www.w3.org/2000/svg">
    <path d="M0.517045 18V0.545454H4.20739V14.9574H11.6903V18H0.517045ZM28.2943 9.27273C28.2943 11.1761 27.9335 12.7955 27.2119 14.1307C26.496 15.4659 25.5188 16.4858 24.2801 17.1903C23.0472 17.8892 21.6608 18.2386 20.121 18.2386C18.5699 18.2386 17.1778 17.8864 15.9449 17.1818C14.7119 16.4773 13.7375 15.4574 13.0216 14.1222C12.3057 12.7869 11.9477 11.1705 11.9477 9.27273C11.9477 7.36932 12.3057 5.75 13.0216 4.41477C13.7375 3.07955 14.7119 2.0625 15.9449 1.36364C17.1778 0.659091 18.5699 0.306818 20.121 0.306818C21.6608 0.306818 23.0472 0.659091 24.2801 1.36364C25.5188 2.0625 26.496 3.07955 27.2119 4.41477C27.9335 5.75 28.2943 7.36932 28.2943 9.27273ZM24.5528 9.27273C24.5528 8.03977 24.3682 7 23.9989 6.15341C23.6352 5.30682 23.121 4.66477 22.4563 4.22727C21.7915 3.78977 21.0131 3.57102 20.121 3.57102C19.229 3.57102 18.4506 3.78977 17.7858 4.22727C17.121 4.66477 16.604 5.30682 16.2347 6.15341C15.871 7 15.6892 8.03977 15.6892 9.27273C15.6892 10.5057 15.871 11.5455 16.2347 12.392C16.604 13.2386 17.121 13.8807 17.7858 14.3182C18.4506 14.7557 19.229 14.9744 20.121 14.9744C21.0131 14.9744 21.7915 14.7557 22.4563 14.3182C23.121 13.8807 23.6352 13.2386 23.9989 12.392C24.3682 11.5455 24.5528 10.5057 24.5528 9.27273ZM41.4018 6.1875C41.2825 5.77273 41.1149 5.40625 40.899 5.08807C40.6831 4.7642 40.4189 4.49148 40.1064 4.26989C39.7996 4.04261 39.4473 3.86932 39.0496 3.75C38.6575 3.63068 38.2229 3.57102 37.7456 3.57102C36.8536 3.57102 36.0695 3.79261 35.3933 4.23579C34.7229 4.67898 34.2001 5.32386 33.8251 6.17045C33.4501 7.01136 33.2626 8.03977 33.2626 9.25568C33.2626 10.4716 33.4473 11.5057 33.8166 12.358C34.1859 13.2102 34.7087 13.8608 35.3848 14.3097C36.0609 14.7528 36.8592 14.9744 37.7797 14.9744C38.6149 14.9744 39.328 14.8267 39.9189 14.5312C40.5155 14.2301 40.97 13.8068 41.2825 13.2614C41.6007 12.7159 41.7598 12.071 41.7598 11.3267L42.5098 11.4375H38.0098V8.65909H45.3138V10.858C45.3138 12.392 44.9899 13.7102 44.3422 14.8125C43.6945 15.9091 42.8024 16.7557 41.6661 17.3523C40.5297 17.9432 39.2286 18.2386 37.7626 18.2386C36.1263 18.2386 34.6888 17.8778 33.4501 17.1562C32.2115 16.429 31.2456 15.3977 30.5524 14.0625C29.8649 12.7216 29.5212 11.1307 29.5212 9.28977C29.5212 7.875 29.7257 6.61364 30.1348 5.50568C30.5496 4.39205 31.1291 3.44886 31.8734 2.67614C32.6178 1.90341 33.4842 1.31534 34.4729 0.911931C35.4615 0.508522 36.5325 0.306818 37.6859 0.306818C38.6746 0.306818 39.595 0.451704 40.4473 0.741477C41.2996 1.02557 42.0553 1.42898 42.7143 1.9517C43.3791 2.47443 43.9217 3.09659 44.3422 3.81818C44.7626 4.53409 45.0325 5.32386 45.1518 6.1875H41.4018ZM62.9256 9.27273C62.9256 11.1761 62.5648 12.7955 61.8432 14.1307C61.1273 15.4659 60.15 16.4858 58.9114 17.1903C57.6784 17.8892 56.292 18.2386 54.7523 18.2386C53.2011 18.2386 51.8091 17.8864 50.5761 17.1818C49.3432 16.4773 48.3688 15.4574 47.6528 14.1222C46.9369 12.7869 46.579 11.1705 46.579 9.27273C46.579 7.36932 46.9369 5.75 47.6528 4.41477C48.3688 3.07955 49.3432 2.0625 50.5761 1.36364C51.8091 0.659091 53.2011 0.306818 54.7523 0.306818C56.292 0.306818 57.6784 0.659091 58.9114 1.36364C60.15 2.0625 61.1273 3.07955 61.8432 4.41477C62.5648 5.75 62.9256 7.36932 62.9256 9.27273ZM59.1841 9.27273C59.1841 8.03977 58.9994 7 58.6301 6.15341C58.2665 5.30682 57.7523 4.66477 57.0875 4.22727C56.4227 3.78977 55.6443 3.57102 54.7523 3.57102C53.8602 3.57102 53.0818 3.78977 52.417 4.22727C51.7523 4.66477 51.2352 5.30682 50.8659 6.15341C50.5023 7 50.3205 8.03977 50.3205 9.27273C50.3205 10.5057 50.5023 11.5455 50.8659 12.392C51.2352 13.2386 51.7523 13.8807 52.417 14.3182C53.0818 14.7557 53.8602 14.9744 54.7523 14.9744C55.6443 14.9744 56.4227 14.7557 57.0875 14.3182C57.7523 13.8807 58.2665 13.2386 58.6301 12.392C58.9994 11.5455 59.1841 10.5057 59.1841 9.27273ZM62.9976 3.58807V0.545454H77.3328V3.58807H71.9891V18H68.3413V3.58807H62.9976ZM77.4709 0.545454H81.6044L85.5845 8.0625H85.755L89.7351 0.545454H93.8686L87.5021 11.8295V18H83.8374V11.8295L77.4709 0.545454ZM94.6842 18V0.545454H101.571C102.894 0.545454 104.022 0.798295 104.954 1.30398C105.886 1.80398 106.596 2.5 107.085 3.39204C107.579 4.27841 107.826 5.30114 107.826 6.46023C107.826 7.61932 107.576 8.64205 107.076 9.52841C106.576 10.4148 105.852 11.1051 104.903 11.5994C103.96 12.0937 102.818 12.3409 101.477 12.3409H97.0876V9.38352H100.88C101.59 9.38352 102.176 9.26136 102.636 9.01705C103.102 8.76705 103.448 8.4233 103.676 7.9858C103.909 7.54261 104.025 7.03409 104.025 6.46023C104.025 5.88068 103.909 5.375 103.676 4.94318C103.448 4.50568 103.102 4.16761 102.636 3.92898C102.17 3.68466 101.579 3.5625 100.863 3.5625H98.3746V18H94.6842ZM109.023 18V0.545454H120.785V3.58807H112.714V7.74716H120.18V10.7898H112.714V14.9574H120.819V18H109.023Z" fill="#2D3748"/>
</svg>
